<?xml version="1.0" standalone="no"?>
<!DOCTYPE svg PUBLIC "-//W3C//DTD SVG 20010904//EN"
 "http://www.w3.org/TR/2001/REC-SVG-20010904/DTD/svg10.dtd">
<svg version="1.0" xmlns="http://www.w3.org/2000/svg"
 width="328.000000pt" height="100.000000pt" viewBox="0 0 328.000000 100.000000"
 preserveAspectRatio="xMidYMid meet">

<g transform="translate(0.000000,100.000000) scale(0.100000,-0.100000)"
fill="#000000" stroke="none">
<path d="M310 943 c25 -10 30 -25 30 -93 0 -80 -7 -108 -29 -113 -9 -3 9 -5
39 -5 30 0 47 2 38 5 -14 3 -18 15 -18 47 0 43 1 44 39 50 46 7 64 25 59 63
-4 37 -38 53 -113 52 -33 0 -53 -3 -45 -6z m120 -22 c5 -11 10 -26 10 -35 0
-21 -28 -46 -51 -46 -16 0 -19 7 -19 50 0 46 2 50 25 50 14 0 29 -8 35 -19z"/>
<path d="M503 939 c14 -8 17 -25 17 -100 0 -84 -2 -90 -22 -99 -18 -7 -10 -9
32 -8 30 0 47 2 38 5 -16 4 -18 18 -18 104 0 97 1 99 23 99 31 0 47 -18 47
-52 0 -23 -7 -32 -31 -42 -18 -7 -28 -15 -23 -17 5 -2 26 -25 47 -51 32 -40
44 -48 70 -47 27 0 29 2 12 9 -12 4 -37 28 -57 53 l-37 44 24 11 c18 9 25 19
25 41 0 43 -31 61 -105 61 -46 -1 -56 -3 -42 -11z"/>
<path d="M738 944 c8 -4 12 -35 12 -104 0 -85 -2 -99 -17 -103 -10 -3 24 -5
75 -6 l92 -1 -1 38 c0 29 -2 33 -9 17 -13 -33 -36 -47 -72 -43 -32 3 -33 5
-36 52 l-3 48 30 -4 c19 -3 31 0 31 7 0 7 -11 10 -30 7 -30 -4 -30 -4 -30 42
0 46 0 46 34 46 25 0 40 -7 51 -22 l16 -23 -3 25 c-3 24 -6 25 -78 27 -41 1
-69 0 -62 -3z"/>
<path d="M943 935 c13 -12 17 -34 17 -93 0 -80 -5 -95 -30 -105 -29 -11 117
-7 149 4 64 23 82 115 32 171 -27 30 -34 33 -107 36 -73 4 -77 3 -61 -13z
m136 -19 c28 -29 37 -87 21 -126 -15 -36 -37 -50 -79 -50 l-31 0 0 100 0 100
33 0 c22 0 41 -8 56 -24z"/>
<path d="M1183 939 c14 -8 17 -25 17 -99 0 -74 -3 -91 -17 -99 -14 -8 -7 -10
32 -10 39 0 46 2 33 10 -26 15 -26 183 0 198 13 8 6 10 -33 10 -39 0 -46 -2
-32 -10z"/>
<path d="M368 633 c7 -3 16 -2 19 1 4 3 -2 6 -13 5 -11 0 -14 -3 -6 -6z"/>
<path d="M101 616 c-7 -8 -11 -27 -9 -43 2 -22 14 -34 56 -56 54 -29 67 -57
40 -86 -11 -11 -10 -13 2 -9 22 7 39 48 31 72 -4 12 -31 34 -60 50 -48 26 -53
31 -49 57 5 33 5 34 -11 15z"/>
<path d="M172 616 c7 -6 19 -18 26 -25 10 -13 12 -11 12 10 0 19 -6 24 -26 25
-20 2 -22 -1 -12 -10z"/>
<path d="M289 601 c-42 -42 -42 -110 0 -152 16 -16 37 -29 46 -29 12 0 9 6
-12 24 -24 21 -27 31 -27 81 0 50 3 60 27 81 21 18 24 24 12 24 -9 0 -30 -13
-46 -29z"/>
<path d="M425 605 c21 -20 25 -34 25 -80 0 -46 -4 -60 -25 -80 -25 -26 -18
-33 16 -15 24 13 49 61 49 95 0 34 -25 82 -49 95 -34 18 -41 11 -16 -15z"/>
<path d="M551 607 c15 -12 55 -60 90 -107 51 -68 65 -81 67 -63 2 14 -19 50
-63 107 -54 70 -71 86 -93 86 l-27 0 26 -23z"/>
<path d="M693 619 c11 -7 23 -7 35 0 14 9 11 10 -18 10 -29 0 -32 -1 -17 -10z"/>
<path d="M868 618 c19 -19 16 -218 -4 -246 -20 -29 -50 -28 -58 0 -4 18 -8 20
-17 11 -9 -9 -9 -16 1 -28 17 -21 63 -19 91 4 22 18 24 27 27 138 3 75 8 121
15 125 7 4 -6 8 -27 8 -31 0 -37 -3 -28 -12z"/>
<path d="M1034 614 c-4 -10 -9 -23 -12 -28 -3 -5 -1 -6 5 -3 10 6 66 -122 66
-150 0 -8 12 -13 31 -13 19 0 26 3 19 8 -7 4 -30 49 -51 100 -44 105 -49 112
-58 86z"/>
<path d="M1168 623 c8 -3 12 -31 12 -87 0 -93 9 -109 70 -121 l35 -6 -35 18
-35 18 -3 84 c-2 61 1 87 10 92 8 6 -3 8 -27 8 -22 0 -34 -3 -27 -6z"/>
<path d="M1323 623 c14 -4 17 -16 17 -81 0 -82 -4 -92 -35 -110 -11 -6 -14
-12 -7 -12 6 0 21 9 32 20 16 16 20 33 20 93 0 43 5 78 12 85 9 9 4 12 -22 11
-19 -1 -27 -3 -17 -6z"/>
<path d="M1418 624 c8 -4 12 -33 12 -94 0 -74 -3 -91 -17 -99 -15 -9 -12 -10
17 -11 22 0 30 3 22 9 -9 5 -12 30 -10 86 l3 79 35 -81 c19 -44 39 -82 44 -84
5 -2 13 6 17 19 5 13 5 21 0 18 -4 -3 -24 31 -43 77 -31 74 -37 82 -64 84 -16
1 -23 0 -16 -3z"/>
<path d="M1609 618 c0 -7 -1 -55 -2 -105 l-2 -93 28 0 c24 0 26 2 17 19 -5 11
-10 50 -10 86 0 36 5 75 10 86 9 16 7 19 -15 19 -14 0 -25 -6 -26 -12z"/>
<path d="M1718 623 c8 -3 12 -33 12 -98 0 -65 -4 -95 -12 -98 -7 -3 5 -6 27
-6 24 0 35 3 27 7 -9 6 -12 35 -10 105 l3 97 -30 -1 c-16 0 -24 -3 -17 -6z"/>
<path d="M1824 621 c11 -4 23 -16 27 -27 6 -16 8 -14 8 9 1 23 -3 27 -26 26
-23 0 -25 -2 -9 -8z"/>
<path d="M1925 525 l0 -105 30 0 c22 0 26 3 17 12 -7 7 -12 43 -12 93 0 50 5
86 12 93 9 9 5 12 -17 12 l-30 0 0 -105z"/>
<path d="M2118 623 c8 -3 12 -33 12 -98 0 -65 -4 -95 -12 -98 -7 -3 5 -5 27
-5 22 0 34 2 28 5 -9 3 -13 33 -13 98 0 65 4 95 13 98 6 3 -6 5 -28 5 -22 0
-34 -2 -27 -5z"/>
<path d="M1006 555 c-9 -26 -7 -32 5 -12 6 10 9 21 6 23 -2 3 -7 -2 -11 -11z"/>
<path d="M1806 542 c-2 -4 -1 -14 5 -22 7 -12 9 -10 9 8 0 23 -5 28 -14 14z"/>
<path d="M986 505 c-9 -26 -7 -32 5 -12 6 10 9 21 6 23 -2 3 -7 -2 -11 -11z"/>
<path d="M80 448 c0 -25 3 -29 12 -20 9 9 15 9 27 -1 8 -6 4 3 -9 21 -13 17
-25 32 -27 32 -2 0 -3 -14 -3 -32z"/>
<path d="M1865 459 c-4 -11 -16 -24 -28 -29 -19 -8 -18 -9 11 -9 29 -1 32 2
32 29 0 35 -6 39 -15 9z"/>
<path d="M2070 466 c0 -8 -10 -22 -22 -30 l-22 -16 27 0 c23 0 27 4 27 30 0
17 -2 30 -5 30 -3 0 -5 -6 -5 -14z"/>
<path d="M2270 470 c0 -5 -9 -19 -20 -30 l-20 -20 25 0 c21 0 25 5 25 30 0 17
-2 30 -5 30 -3 0 -5 -4 -5 -10z"/>
<path d="M970 461 c0 -5 -7 -17 -16 -25 -14 -15 -13 -16 12 -16 21 0 25 3 17
11 -6 6 -9 18 -6 25 3 8 2 14 -1 14 -3 0 -6 -4 -6 -9z"/>
<path d="M536 434 c-19 -13 -18 -14 15 -14 19 0 30 4 24 8 -5 4 -12 10 -15 14
-3 3 -14 0 -24 -8z"/>
<path d="M368 413 c7 -3 16 -2 19 1 4 3 -2 6 -13 5 -11 0 -14 -3 -6 -6z"/>
</g>
</svg>
