<?xml version="1.0" encoding="utf-8"?>
<!-- Generator: Adobe Illustrator 25.3.0, SVG Export Plug-In . SVG Version: 6.00 Build 0)  -->
<svg version="1.1" id="Capa_1" xmlns="http://www.w3.org/2000/svg" xmlns:xlink="http://www.w3.org/1999/xlink" x="0px" y="0px"
	 viewBox="0 0 498 154.3" style="enable-background:new 0 0 498 154.3;" xml:space="preserve">
<style type="text/css">
	.st0{fill:#035C67;}
</style>
<g>
	<g>
		<path class="st0" d="M253.2,100.25c0,5.58-4.53,10.11-10.11,10.11h-29.43c11.44-6.01,17.54-17.17,26.32-19.73
			c0.95-0.31,1.97-0.48,3.02-0.49c0.03,0,0.06,0,0.09,0l0,0C248.67,90.14,253.2,94.67,253.2,100.25"/>
		<path class="st0" d="M207.48,110.18c-5.77-0.07-10.43-4.76-10.43-10.55c0-1.83,0.47-3.55,1.28-5.05l17.26-34.51
			c0.51-1.12,1.22-2.16,2.14-3.08c4.12-4.12,10.8-4.12,14.92,0c0.92,0.91,1.63,1.96,2.14,3.07l14.07,28.14
			c-1.72-0.91-3.67-1.43-5.75-1.43l0,0c-0.04,0-0.07,0-0.11,0c-1.29,0.01-2.53,0.22-3.69,0.6c-9.03,2.63-14.14,11.58-24.68,19.07
			C213.14,107.51,211.18,109.09,207.48,110.18"/>
		<path class="st0" d="M160.15,54.08c-5.77,0.07-10.43,4.76-10.43,10.55c0,1.83,0.46,3.55,1.28,5.05l17.26,34.51
			c0.51,1.12,1.22,2.16,2.14,3.08c4.12,4.12,10.8,4.12,14.92,0c0.91-0.92,1.63-1.96,2.14-3.07l14.07-28.14
			c-1.72,0.91-3.67,1.43-5.75,1.43l0,0c-0.04,0-0.07,0-0.11,0c-1.29-0.01-2.53-0.22-3.69-0.6c-9.03-2.63-14.14-11.58-24.68-19.07
			C165.81,56.75,163.86,55.17,160.15,54.08"/>
		<path class="st0" d="M205.87,64.01c0-5.58-4.53-10.11-10.11-10.11h-29.43c11.44,6.01,17.54,17.17,26.32,19.73
			c0.95,0.31,1.97,0.48,3.02,0.49c0.03,0,0.06,0,0.09,0v0C201.35,74.12,205.87,69.59,205.87,64.01"/>
		<path class="st0" d="M76.45,54.08c-5.77,0.07-10.43,4.76-10.43,10.55c0,1.83,0.46,3.55,1.28,5.05l17.26,34.51
			c0.51,1.12,1.22,2.16,2.14,3.08c4.12,4.12,10.8,4.12,14.92,0c0.92-0.92,1.63-1.96,2.14-3.07l14.07-28.14
			c-1.72,0.91-3.67,1.43-5.75,1.43l0,0c-0.04,0-0.07,0-0.11,0c-1.29-0.01-2.53-0.22-3.69-0.6c-9.03-2.63-14.14-11.58-24.68-19.07
			C82.11,56.75,80.16,55.17,76.45,54.08"/>
		<path class="st0" d="M122.17,64.01c0-5.58-4.53-10.11-10.11-10.11H82.63c11.44,6.01,17.54,17.17,26.32,19.73
			c0.95,0.31,1.97,0.48,3.02,0.49c0.03,0,0.06,0,0.09,0l0,0C117.64,74.12,122.17,69.59,122.17,64.01"/>
		<path class="st0" d="M146.5,64.63c0-5.83-4.73-10.55-10.55-10.55S125.4,58.8,125.4,64.63V99.8c0,5.83,4.72,10.55,10.55,10.55
			c5.83,0,10.55-4.72,10.55-10.55V64.63z"/>
	</g>
	<g>
		<path class="st0" d="M315.06,72.46h-5.6v5.05c0,0.11-0.03,0.2-0.08,0.26c-0.06,0.06-0.15,0.09-0.28,0.09h-1.77
			c-0.22,0-0.33-0.11-0.33-0.34V65.71c0-0.1,0.03-0.18,0.08-0.24c0.05-0.07,0.13-0.1,0.25-0.1h1.82c0.07,0,0.14,0.02,0.21,0.07
			c0.07,0.04,0.11,0.13,0.11,0.26v4.4h5.6v-4.38c0-0.1,0.03-0.18,0.08-0.24c0.05-0.07,0.13-0.1,0.24-0.1h1.82
			c0.07,0,0.14,0.02,0.21,0.07c0.07,0.04,0.1,0.13,0.1,0.26V77.5c0,0.11-0.03,0.2-0.08,0.26c-0.05,0.06-0.14,0.09-0.27,0.09h-1.77
			c-0.21,0-0.32-0.11-0.32-0.34V72.46z"/>
		<path class="st0" d="M333.61,71.6c0,0.59-0.08,1.16-0.23,1.71c-0.15,0.55-0.37,1.06-0.65,1.53c-0.28,0.47-0.61,0.91-1,1.3
			c-0.39,0.39-0.83,0.72-1.3,1c-0.48,0.28-0.99,0.5-1.54,0.65c-0.55,0.15-1.12,0.23-1.71,0.23c-0.59,0-1.16-0.08-1.71-0.23
			c-0.55-0.15-1.06-0.37-1.53-0.65c-0.47-0.28-0.9-0.62-1.29-1c-0.39-0.39-0.72-0.82-1-1.3c-0.28-0.47-0.49-0.99-0.64-1.53
			c-0.15-0.55-0.23-1.12-0.23-1.71c0-0.59,0.08-1.17,0.23-1.71c0.15-0.55,0.37-1.06,0.64-1.54c0.28-0.48,0.61-0.91,1-1.3
			c0.39-0.39,0.82-0.72,1.29-1c0.47-0.28,0.98-0.49,1.53-0.64c0.55-0.15,1.12-0.23,1.71-0.23c0.59,0,1.16,0.08,1.71,0.23
			c0.55,0.15,1.06,0.37,1.54,0.64c0.48,0.28,0.91,0.61,1.3,1c0.39,0.39,0.73,0.82,1,1.3c0.28,0.48,0.5,0.99,0.65,1.54
			C333.53,70.43,333.61,71.01,333.61,71.6 M331.15,71.6c0-0.57-0.1-1.1-0.3-1.59c-0.2-0.49-0.48-0.92-0.83-1.29
			c-0.35-0.37-0.77-0.65-1.26-0.87c-0.49-0.21-1.01-0.31-1.58-0.31c-0.57,0-1.09,0.1-1.57,0.31c-0.48,0.21-0.9,0.5-1.25,0.87
			c-0.35,0.37-0.63,0.8-0.83,1.29c-0.2,0.5-0.3,1.02-0.3,1.59c0,0.57,0.1,1.1,0.3,1.59c0.2,0.49,0.47,0.92,0.83,1.29
			c0.35,0.37,0.77,0.66,1.25,0.87c0.48,0.21,1.01,0.31,1.57,0.31c0.57,0,1.09-0.11,1.58-0.31c0.48-0.21,0.9-0.5,1.26-0.87
			c0.35-0.37,0.63-0.8,0.83-1.29C331.05,72.7,331.15,72.17,331.15,71.6"/>
		<path class="st0" d="M335.5,65.69c0-0.22,0.11-0.33,0.33-0.33h8.83c0.22,0,0.33,0.11,0.33,0.33v1.59c0,0.22-0.11,0.34-0.33,0.34
			h-3.23v9.9c0,0.23-0.11,0.34-0.33,0.34h-1.81c-0.22,0-0.33-0.11-0.33-0.34v-9.9h-3.14c-0.22,0-0.33-0.11-0.33-0.34V65.69z"/>
		<path class="st0" d="M347.85,65.7c0-0.22,0.11-0.33,0.33-0.33h8.22c0.23,0,0.35,0.11,0.35,0.33v1.63c0,0.23-0.12,0.34-0.35,0.34
			h-6.09v2.55h4.64c0.11,0,0.2,0.03,0.27,0.08c0.07,0.05,0.11,0.14,0.11,0.26v1.6c0,0.11-0.03,0.19-0.1,0.25
			c-0.07,0.05-0.16,0.08-0.28,0.08h-4.64v3.09h6.25c0.11,0,0.2,0.03,0.26,0.08c0.06,0.06,0.09,0.14,0.09,0.25v1.61
			c0,0.11-0.03,0.2-0.09,0.25c-0.06,0.06-0.15,0.08-0.26,0.08h-8.38c-0.22,0-0.33-0.11-0.33-0.34V65.7z"/>
		<path class="st0" d="M360.08,65.71c0-0.1,0.04-0.19,0.11-0.26c0.07-0.07,0.16-0.11,0.28-0.11h1.72c0.23,0,0.35,0.12,0.37,0.37
			v9.84h4.92c0.1,0,0.19,0.03,0.26,0.11c0.07,0.07,0.11,0.16,0.11,0.28v1.54c0,0.23-0.12,0.35-0.37,0.37h-7.02
			c-0.25,0-0.37-0.12-0.37-0.37V65.71z"/>
		<path class="st0" d="M370.72,75.94c-0.04-0.05-0.08-0.1-0.12-0.15c-0.04-0.05-0.06-0.1-0.08-0.15c-0.01-0.05-0.01-0.11,0-0.16
			c0.02-0.05,0.06-0.11,0.12-0.17l1.13-1.1c0.1-0.1,0.2-0.13,0.29-0.1c0.09,0.03,0.19,0.09,0.28,0.18c0.18,0.17,0.37,0.34,0.57,0.51
			c0.21,0.18,0.43,0.33,0.67,0.47c0.24,0.14,0.5,0.25,0.78,0.33c0.28,0.09,0.58,0.13,0.9,0.13c0.33,0,0.63-0.05,0.89-0.14
			s0.49-0.21,0.67-0.37c0.18-0.15,0.32-0.33,0.42-0.52c0.1-0.2,0.14-0.4,0.14-0.61c0-0.27-0.08-0.5-0.24-0.68
			c-0.16-0.18-0.36-0.34-0.6-0.47c-0.24-0.13-0.49-0.23-0.77-0.31c-0.27-0.08-0.52-0.15-0.74-0.21c-0.68-0.2-1.29-0.42-1.8-0.67
			c-0.52-0.24-0.95-0.52-1.31-0.82c-0.35-0.31-0.62-0.65-0.8-1.03c-0.18-0.38-0.27-0.81-0.27-1.28c0-0.52,0.11-0.99,0.33-1.42
			c0.22-0.43,0.53-0.79,0.93-1.1c0.4-0.31,0.88-0.54,1.44-0.71c0.56-0.17,1.17-0.25,1.84-0.25c0.37,0,0.74,0.04,1.09,0.14
			c0.36,0.09,0.71,0.22,1.04,0.38c0.33,0.16,0.65,0.35,0.95,0.57c0.3,0.22,0.57,0.45,0.82,0.71c0.2,0.21,0.2,0.42-0.01,0.65l-0.92,1
			c-0.11,0.1-0.22,0.13-0.32,0.09c-0.1-0.04-0.21-0.11-0.32-0.2c-0.13-0.11-0.29-0.24-0.47-0.37c-0.18-0.13-0.37-0.26-0.57-0.37
			c-0.21-0.11-0.42-0.21-0.65-0.29c-0.23-0.08-0.47-0.12-0.71-0.12c-0.22,0-0.44,0.01-0.67,0.04c-0.23,0.03-0.44,0.1-0.63,0.19
			c-0.19,0.1-0.35,0.23-0.47,0.41c-0.12,0.18-0.18,0.41-0.18,0.69c0,0.21,0.06,0.4,0.18,0.55c0.12,0.15,0.29,0.29,0.5,0.41
			c0.22,0.12,0.47,0.23,0.77,0.33c0.3,0.1,0.63,0.2,0.99,0.3c0.57,0.17,1.1,0.36,1.61,0.56c0.5,0.21,0.95,0.46,1.33,0.76
			c0.38,0.3,0.68,0.66,0.9,1.08c0.22,0.42,0.33,0.92,0.33,1.51c0,0.59-0.13,1.11-0.38,1.59c-0.26,0.47-0.6,0.88-1.04,1.21
			c-0.43,0.33-0.93,0.59-1.49,0.77c-0.56,0.18-1.15,0.27-1.76,0.27c-0.44,0-0.87-0.05-1.3-0.15c-0.43-0.1-0.84-0.24-1.23-0.42
			c-0.4-0.18-0.77-0.4-1.12-0.65C371.32,76.53,371,76.25,370.72,75.94"/>
		<path class="st0" d="M395.22,77.55c-0.09,0.21-0.23,0.31-0.43,0.31h-1.42c-0.21,0-0.35-0.1-0.43-0.31l-4.65-11.82
			c-0.05-0.12-0.05-0.21,0-0.27c0.05-0.06,0.12-0.09,0.23-0.09h1.92c0.2,0,0.34,0.11,0.41,0.32l3.22,8.72l3.2-8.71
			c0.04-0.11,0.09-0.2,0.16-0.25c0.07-0.05,0.15-0.08,0.25-0.08h1.94c0.11,0,0.18,0.03,0.23,0.1c0.05,0.07,0.05,0.16,0,0.28
			L395.22,77.55z"/>
		<path class="st0" d="M402.64,65.71c0-0.23,0.11-0.34,0.34-0.34h1.82c0.22,0,0.33,0.11,0.33,0.34V77.5c0,0.23-0.11,0.35-0.33,0.35
			h-1.82c-0.22,0-0.34-0.12-0.34-0.35V65.71z"/>
		<path class="st0" d="M414.85,77.55c-0.09,0.21-0.23,0.31-0.43,0.31H413c-0.21,0-0.35-0.1-0.43-0.31l-4.65-11.82
			c-0.05-0.12-0.05-0.21,0-0.27c0.05-0.06,0.12-0.09,0.23-0.09h1.92c0.2,0,0.34,0.11,0.41,0.32l3.22,8.72l3.2-8.71
			c0.04-0.11,0.09-0.2,0.16-0.25c0.07-0.05,0.15-0.08,0.25-0.08h1.94c0.11,0,0.18,0.03,0.23,0.1c0.05,0.07,0.05,0.16,0,0.28
			L414.85,77.55z"/>
		<path class="st0" d="M424.95,65.68c0.1-0.21,0.24-0.32,0.42-0.32h1.4c0.1,0,0.18,0.03,0.25,0.08c0.07,0.05,0.13,0.13,0.18,0.24
			l4.74,11.81c0.04,0.11,0.04,0.2,0,0.26c-0.04,0.06-0.12,0.1-0.23,0.1h-1.84c-0.1,0-0.18-0.02-0.25-0.07
			c-0.07-0.05-0.13-0.12-0.17-0.24l-0.81-2.02h-5.16l-0.8,2.01c-0.04,0.11-0.1,0.19-0.17,0.24c-0.07,0.05-0.15,0.07-0.25,0.07h-1.84
			c-0.11,0-0.19-0.03-0.23-0.09c-0.04-0.06-0.04-0.15,0.01-0.27L424.95,65.68z M424.28,73.36h3.57l-1.77-4.77L424.28,73.36z"/>
		<path class="st0" d="M311.79,92.98c0.01-0.07,0.04-0.13,0.08-0.19c0.04-0.06,0.1-0.08,0.18-0.06l3.97,0.84
			c0.31,0.07,0.55,0.07,0.72,0c0.17-0.07,0.3-0.16,0.39-0.28c0.09-0.12,0.15-0.24,0.17-0.37c0.03-0.13,0.05-0.22,0.07-0.28
			c0.03-0.08,0.07-0.13,0.13-0.15s0.12-0.03,0.2-0.02l1.51,0.3c0.07,0.01,0.12,0.05,0.15,0.13c0.03,0.08,0.03,0.15,0.01,0.22
			c-0.03,0.12-0.08,0.28-0.15,0.48c-0.07,0.2-0.17,0.4-0.3,0.62c-0.13,0.22-0.28,0.43-0.47,0.64c-0.19,0.21-0.41,0.39-0.67,0.54
			c-0.26,0.15-0.56,0.25-0.9,0.31c-0.34,0.06-0.72,0.04-1.15-0.05l-0.6-0.12c-0.09,0.62-0.28,1.15-0.56,1.6
			c-0.28,0.45-0.63,0.82-1.04,1.11c-0.41,0.29-0.87,0.51-1.38,0.65c-0.51,0.14-1.03,0.21-1.57,0.21c-0.57,0-1.11-0.1-1.64-0.3
			c-0.53-0.2-0.99-0.48-1.4-0.83c-0.4-0.36-0.73-0.78-0.97-1.26c-0.24-0.48-0.37-1.01-0.37-1.58c0-0.37,0.04-0.71,0.13-1.04
			c0.08-0.33,0.2-0.63,0.36-0.91c0.15-0.28,0.34-0.53,0.55-0.76c0.22-0.23,0.46-0.43,0.73-0.59c-0.31-0.33-0.54-0.7-0.67-1.11
			c-0.13-0.41-0.2-0.82-0.2-1.23c0-0.46,0.09-0.88,0.28-1.28c0.19-0.39,0.44-0.73,0.75-1.01c0.31-0.28,0.68-0.5,1.1-0.66
			c0.42-0.16,0.85-0.24,1.31-0.24c0.55,0,1.04,0.08,1.47,0.25c0.43,0.17,0.79,0.39,1.08,0.69c0.29,0.29,0.51,0.64,0.66,1.04
			c0.15,0.4,0.23,0.83,0.23,1.29c0,0.05,0,0.1,0,0.15c0,0.06-0.01,0.11-0.02,0.16c-0.01,0.05-0.03,0.09-0.07,0.13
			c-0.04,0.03-0.08,0.05-0.14,0.05l-1.5,0.02c-0.12,0-0.19-0.03-0.22-0.08c-0.03-0.06-0.04-0.11-0.04-0.16c0-0.43-0.11-0.76-0.33-1
			c-0.22-0.24-0.55-0.36-0.98-0.36c-0.23,0-0.43,0.04-0.61,0.1c-0.17,0.07-0.32,0.15-0.43,0.27c-0.11,0.11-0.2,0.24-0.26,0.39
			c-0.06,0.15-0.08,0.3-0.08,0.46c0,0.21,0.04,0.41,0.11,0.59c0.07,0.17,0.17,0.33,0.29,0.46c0.12,0.14,0.27,0.24,0.44,0.32
			c0.17,0.08,0.35,0.13,0.54,0.15c0.03,0,0.06,0.01,0.1,0.03c0.04,0.02,0.07,0.04,0.11,0.06c0.03,0.03,0.06,0.06,0.08,0.1
			c0.02,0.04,0.02,0.09,0.01,0.14l-0.28,1.36c-0.02,0.08-0.05,0.13-0.1,0.16c-0.05,0.03-0.1,0.05-0.17,0.05c-0.06,0-0.13,0-0.2-0.01
			c-0.07-0.01-0.13-0.02-0.19-0.03c-0.21-0.01-0.41,0.02-0.59,0.09c-0.18,0.07-0.34,0.19-0.47,0.34c-0.13,0.15-0.23,0.35-0.31,0.57
			c-0.07,0.23-0.11,0.49-0.11,0.79c0,0.32,0.06,0.61,0.17,0.86c0.11,0.25,0.27,0.46,0.46,0.64c0.19,0.18,0.42,0.31,0.67,0.4
			c0.25,0.09,0.53,0.14,0.81,0.14c0.32,0,0.61-0.04,0.87-0.13c0.26-0.08,0.48-0.2,0.67-0.36c0.19-0.16,0.34-0.35,0.45-0.57
			c0.11-0.22,0.17-0.48,0.19-0.77l-1.18-0.28c-0.03-0.01-0.06-0.02-0.09-0.03c-0.04-0.01-0.07-0.03-0.1-0.05s-0.05-0.05-0.07-0.08
			c-0.02-0.03-0.02-0.07-0.01-0.11L311.79,92.98z"/>
		<path class="st0" d="M328.21,86.8c0-0.09,0.03-0.17,0.08-0.23c0.05-0.06,0.14-0.1,0.25-0.1h5.34c0.58,0,1.11,0.11,1.59,0.34
			c0.49,0.23,0.9,0.53,1.25,0.91c0.35,0.38,0.62,0.82,0.82,1.31c0.19,0.49,0.29,1,0.29,1.53c0,0.35-0.05,0.7-0.16,1.03
			c-0.1,0.34-0.25,0.66-0.44,0.96c-0.19,0.3-0.41,0.58-0.67,0.83c-0.26,0.25-0.55,0.47-0.86,0.66l2.3,4.54
			c0.04,0.08,0.04,0.16,0,0.24c-0.04,0.08-0.11,0.12-0.22,0.12h-2.17c-0.1,0-0.17-0.02-0.23-0.06c-0.06-0.04-0.11-0.12-0.17-0.23
			l-2-4.03h-2.56v3.99c0,0.23-0.11,0.34-0.33,0.34h-1.8c-0.22,0-0.33-0.11-0.33-0.34V86.8z M330.66,88.64v3.76h2.62
			c0.29,0,0.56-0.05,0.81-0.14c0.25-0.09,0.46-0.23,0.64-0.39c0.18-0.17,0.32-0.37,0.42-0.6c0.1-0.23,0.16-0.48,0.16-0.75
			c0-0.27-0.05-0.52-0.16-0.75c-0.1-0.23-0.24-0.43-0.42-0.6c-0.18-0.17-0.39-0.3-0.64-0.39c-0.25-0.1-0.52-0.14-0.81-0.14H330.66z"
			/>
		<path class="st0" d="M341.1,86.8c0-0.22,0.11-0.33,0.33-0.33h8.22c0.23,0,0.35,0.11,0.35,0.33v1.63c0,0.23-0.11,0.34-0.35,0.34
			h-6.09v2.55h4.64c0.11,0,0.2,0.03,0.27,0.08c0.07,0.05,0.11,0.14,0.11,0.26v1.6c0,0.11-0.04,0.19-0.1,0.25
			c-0.07,0.05-0.16,0.08-0.28,0.08h-4.64v3.09h6.25c0.11,0,0.2,0.03,0.26,0.08c0.06,0.06,0.09,0.14,0.09,0.25v1.61
			c0,0.11-0.03,0.2-0.09,0.25c-0.06,0.06-0.15,0.08-0.26,0.08h-8.38c-0.22,0-0.33-0.11-0.33-0.34V86.8z"/>
		<path class="st0" d="M352.96,97.04c-0.04-0.05-0.08-0.1-0.12-0.15c-0.04-0.05-0.06-0.1-0.08-0.15c-0.01-0.05-0.01-0.11,0-0.16
			c0.02-0.05,0.06-0.11,0.12-0.17l1.13-1.1c0.1-0.1,0.2-0.13,0.29-0.1c0.09,0.03,0.19,0.09,0.28,0.18c0.18,0.17,0.37,0.34,0.57,0.51
			c0.21,0.18,0.43,0.33,0.67,0.47c0.24,0.14,0.5,0.25,0.78,0.33c0.28,0.09,0.58,0.13,0.9,0.13c0.33,0,0.63-0.05,0.89-0.14
			c0.26-0.09,0.49-0.21,0.67-0.37c0.18-0.15,0.32-0.33,0.42-0.52c0.09-0.2,0.14-0.4,0.14-0.61c0-0.27-0.08-0.5-0.24-0.68
			c-0.16-0.18-0.36-0.34-0.6-0.47c-0.24-0.13-0.49-0.23-0.77-0.31c-0.27-0.08-0.52-0.15-0.74-0.21c-0.68-0.2-1.29-0.42-1.8-0.67
			c-0.52-0.24-0.96-0.52-1.31-0.82c-0.35-0.31-0.62-0.65-0.8-1.03c-0.18-0.38-0.27-0.81-0.27-1.28c0-0.52,0.11-0.99,0.33-1.42
			c0.22-0.43,0.53-0.79,0.93-1.1c0.4-0.31,0.88-0.54,1.44-0.71c0.56-0.17,1.17-0.25,1.84-0.25c0.37,0,0.73,0.04,1.1,0.14
			c0.36,0.09,0.7,0.22,1.04,0.38c0.33,0.16,0.65,0.35,0.95,0.57c0.3,0.22,0.57,0.45,0.82,0.71c0.2,0.21,0.2,0.42-0.01,0.65l-0.92,1
			c-0.11,0.1-0.22,0.13-0.32,0.09c-0.1-0.04-0.21-0.11-0.32-0.2c-0.13-0.11-0.29-0.24-0.47-0.37c-0.18-0.13-0.37-0.26-0.57-0.37
			c-0.2-0.11-0.42-0.21-0.65-0.29c-0.23-0.08-0.47-0.12-0.72-0.12c-0.22,0-0.44,0.01-0.67,0.04c-0.23,0.03-0.44,0.1-0.63,0.19
			c-0.19,0.1-0.35,0.23-0.47,0.41c-0.12,0.18-0.18,0.41-0.18,0.69c0,0.21,0.06,0.4,0.18,0.55c0.12,0.15,0.29,0.29,0.5,0.41
			c0.22,0.12,0.47,0.23,0.77,0.33c0.3,0.1,0.63,0.2,0.99,0.3c0.57,0.17,1.1,0.36,1.61,0.56c0.5,0.21,0.95,0.46,1.32,0.76
			c0.38,0.3,0.68,0.66,0.9,1.08c0.22,0.42,0.33,0.92,0.33,1.51c0,0.59-0.13,1.11-0.39,1.59c-0.26,0.47-0.6,0.88-1.04,1.21
			c-0.43,0.33-0.93,0.59-1.49,0.77c-0.56,0.18-1.15,0.27-1.76,0.27c-0.44,0-0.87-0.05-1.29-0.15c-0.43-0.1-0.84-0.24-1.23-0.42
			c-0.4-0.18-0.77-0.4-1.12-0.65C353.56,97.63,353.24,97.35,352.96,97.04"/>
		<path class="st0" d="M377.5,92.7c0,0.59-0.08,1.16-0.23,1.71c-0.15,0.55-0.37,1.06-0.65,1.53c-0.28,0.47-0.61,0.91-1,1.3
			c-0.39,0.39-0.83,0.72-1.3,1c-0.48,0.28-0.99,0.5-1.54,0.65c-0.55,0.15-1.12,0.23-1.71,0.23c-0.59,0-1.16-0.08-1.71-0.23
			c-0.55-0.15-1.06-0.37-1.53-0.65c-0.48-0.28-0.9-0.62-1.29-1c-0.39-0.39-0.72-0.82-1-1.3c-0.28-0.47-0.49-0.99-0.64-1.53
			c-0.15-0.55-0.23-1.12-0.23-1.71c0-0.59,0.08-1.17,0.23-1.71c0.15-0.55,0.37-1.06,0.64-1.54c0.28-0.48,0.61-0.91,1-1.3
			c0.39-0.39,0.81-0.72,1.29-1c0.47-0.28,0.98-0.49,1.53-0.64c0.55-0.15,1.12-0.23,1.71-0.23c0.59,0,1.16,0.08,1.71,0.23
			c0.55,0.15,1.06,0.37,1.54,0.64c0.48,0.28,0.91,0.61,1.3,1c0.39,0.39,0.73,0.82,1,1.3c0.28,0.48,0.49,0.99,0.65,1.54
			C377.42,91.54,377.5,92.11,377.5,92.7 M375.03,92.7c0-0.57-0.1-1.1-0.3-1.59c-0.2-0.49-0.48-0.92-0.83-1.29
			c-0.35-0.37-0.77-0.65-1.26-0.87c-0.48-0.21-1.01-0.31-1.58-0.31c-0.57,0-1.09,0.1-1.57,0.31c-0.48,0.21-0.9,0.5-1.25,0.87
			c-0.35,0.37-0.63,0.8-0.82,1.29c-0.2,0.5-0.3,1.02-0.3,1.59c0,0.57,0.1,1.1,0.3,1.59c0.2,0.49,0.47,0.92,0.82,1.29
			c0.35,0.37,0.77,0.66,1.25,0.87c0.48,0.21,1.01,0.31,1.57,0.31c0.57,0,1.09-0.11,1.58-0.31c0.48-0.21,0.9-0.5,1.26-0.87
			c0.35-0.37,0.63-0.8,0.83-1.29C374.93,93.8,375.03,93.27,375.03,92.7"/>
		<path class="st0" d="M380.87,86.8c0-0.09,0.03-0.17,0.08-0.23c0.05-0.06,0.14-0.1,0.25-0.1h5.34c0.58,0,1.11,0.11,1.59,0.34
			c0.48,0.23,0.9,0.53,1.25,0.91c0.35,0.38,0.62,0.82,0.82,1.31c0.2,0.49,0.29,1,0.29,1.53c0,0.35-0.05,0.7-0.15,1.03
			c-0.1,0.34-0.25,0.66-0.44,0.96c-0.19,0.3-0.41,0.58-0.67,0.83c-0.26,0.25-0.55,0.47-0.86,0.66l2.3,4.54
			c0.04,0.08,0.04,0.16,0,0.24c-0.04,0.08-0.11,0.12-0.22,0.12h-2.17c-0.1,0-0.17-0.02-0.23-0.06c-0.06-0.04-0.11-0.12-0.17-0.23
			l-2-4.03h-2.56v3.99c0,0.23-0.11,0.34-0.33,0.34h-1.8c-0.22,0-0.33-0.11-0.33-0.34V86.8z M383.32,88.64v3.76h2.62
			c0.29,0,0.56-0.05,0.81-0.14c0.25-0.09,0.46-0.23,0.64-0.39c0.18-0.17,0.32-0.37,0.42-0.6c0.1-0.23,0.16-0.48,0.16-0.75
			c0-0.27-0.05-0.52-0.16-0.75s-0.24-0.43-0.42-0.6c-0.18-0.17-0.39-0.3-0.64-0.39c-0.25-0.1-0.52-0.14-0.81-0.14H383.32z"/>
		<path class="st0" d="M392.59,86.79c0-0.22,0.11-0.33,0.33-0.33h8.83c0.22,0,0.33,0.11,0.33,0.33v1.59c0,0.22-0.11,0.34-0.33,0.34
			h-3.23v9.9c0,0.23-0.11,0.34-0.33,0.34h-1.81c-0.22,0-0.33-0.11-0.33-0.34v-9.9h-3.14c-0.22,0-0.33-0.11-0.33-0.34V86.79z"/>
		<path class="st0" d="M404.67,97.04c-0.04-0.05-0.08-0.1-0.12-0.15c-0.04-0.05-0.06-0.1-0.08-0.15c-0.01-0.05-0.01-0.11,0-0.16
			c0.02-0.05,0.06-0.11,0.12-0.17l1.13-1.1c0.1-0.1,0.2-0.13,0.29-0.1c0.09,0.03,0.19,0.09,0.28,0.18c0.18,0.17,0.37,0.34,0.57,0.51
			c0.21,0.18,0.43,0.33,0.67,0.47c0.24,0.14,0.5,0.25,0.78,0.33c0.28,0.09,0.58,0.13,0.9,0.13c0.33,0,0.63-0.05,0.89-0.14
			c0.26-0.09,0.49-0.21,0.67-0.37c0.18-0.15,0.32-0.33,0.42-0.52c0.09-0.2,0.14-0.4,0.14-0.61c0-0.27-0.08-0.5-0.25-0.68
			c-0.16-0.18-0.36-0.34-0.6-0.47c-0.24-0.13-0.49-0.23-0.77-0.31c-0.27-0.08-0.52-0.15-0.74-0.21c-0.68-0.2-1.29-0.42-1.8-0.67
			c-0.52-0.24-0.95-0.52-1.31-0.82c-0.35-0.31-0.62-0.65-0.8-1.03c-0.18-0.38-0.27-0.81-0.27-1.28c0-0.52,0.11-0.99,0.33-1.42
			c0.22-0.43,0.53-0.79,0.93-1.1c0.4-0.31,0.88-0.54,1.44-0.71c0.56-0.17,1.17-0.25,1.84-0.25c0.37,0,0.73,0.04,1.1,0.14
			c0.36,0.09,0.7,0.22,1.04,0.38c0.33,0.16,0.65,0.35,0.95,0.57c0.3,0.22,0.57,0.45,0.82,0.71c0.2,0.21,0.2,0.42-0.01,0.65l-0.92,1
			c-0.11,0.1-0.22,0.13-0.32,0.09c-0.1-0.04-0.21-0.11-0.32-0.2c-0.13-0.11-0.29-0.24-0.46-0.37c-0.18-0.13-0.37-0.26-0.57-0.37
			c-0.2-0.11-0.42-0.21-0.65-0.29c-0.23-0.08-0.47-0.12-0.72-0.12c-0.22,0-0.44,0.01-0.67,0.04c-0.23,0.03-0.44,0.1-0.63,0.19
			c-0.19,0.1-0.35,0.23-0.47,0.41c-0.12,0.18-0.18,0.41-0.18,0.69c0,0.21,0.06,0.4,0.18,0.55c0.12,0.15,0.29,0.29,0.5,0.41
			c0.22,0.12,0.47,0.23,0.77,0.33c0.3,0.1,0.63,0.2,0.99,0.3c0.57,0.17,1.1,0.36,1.61,0.56c0.5,0.21,0.95,0.46,1.32,0.76
			c0.38,0.3,0.68,0.66,0.9,1.08c0.22,0.42,0.33,0.92,0.33,1.51c0,0.59-0.13,1.11-0.39,1.59c-0.26,0.47-0.6,0.88-1.04,1.21
			c-0.43,0.33-0.93,0.59-1.49,0.77c-0.56,0.18-1.15,0.27-1.76,0.27c-0.44,0-0.87-0.05-1.3-0.15c-0.43-0.1-0.84-0.24-1.23-0.42
			c-0.4-0.18-0.77-0.4-1.12-0.65C405.27,97.63,404.95,97.35,404.67,97.04"/>
	</g>
	<g>
		<path class="st0" d="M260.7,35.77c-0.08,0-2.08,0.02-3.12,1.77l-9.62,16.11c-0.04,0.07-1.05,1.8,0,3.55l9.62,16.1
			c0.05,0.08,1.09,1.77,3.12,1.77h19.34c0.08,0,2.08-0.03,3.12-1.77l9.62-16.1c0.39-0.66,0.84-2.15,0-3.55l-9.62-16.1
			c-0.07-0.11-1.14-1.78-3.13-1.78H260.7z M280.04,76.9H260.7c-3.11,0-4.64-2.56-4.7-2.67l-9.62-16.1c-1.28-2.14-0.6-4.42,0-5.43
			L256,36.6c1.25-2.1,3.54-2.66,4.7-2.66h19.34c2.98,0,4.52,2.38,4.69,2.65l0.01,0.01l9.62,16.11c1.28,2.14,0.6,4.42,0,5.43
			l-9.62,16.1C283.48,76.34,281.19,76.9,280.04,76.9"/>
		<path class="st0" d="M257.59,53.01h1.48l-0.73-1.98L257.59,53.01z M257.87,49.83c0.04-0.09,0.1-0.13,0.17-0.13h0.58
			c0.04,0,0.07,0.01,0.11,0.03c0.03,0.02,0.05,0.06,0.07,0.1l1.97,4.9c0.02,0.05,0.02,0.08,0,0.11c-0.02,0.03-0.05,0.04-0.1,0.04
			h-0.76c-0.04,0-0.08-0.01-0.1-0.03c-0.03-0.02-0.05-0.05-0.07-0.1l-0.34-0.84h-2.14l-0.33,0.83c-0.02,0.05-0.05,0.08-0.07,0.1
			c-0.03,0.02-0.06,0.03-0.1,0.03H256c-0.05,0-0.08-0.01-0.1-0.04c-0.02-0.02-0.02-0.06,0-0.11L257.87,49.83z"/>
		<path class="st0" d="M264.97,52.29c0-0.23-0.04-0.44-0.13-0.64c-0.09-0.2-0.2-0.37-0.35-0.52c-0.15-0.15-0.33-0.27-0.54-0.35
			c-0.21-0.09-0.43-0.13-0.67-0.13h-0.69v3.3h0.69c0.24,0,0.46-0.04,0.67-0.13c0.21-0.08,0.39-0.2,0.54-0.35
			c0.15-0.15,0.27-0.32,0.35-0.52C264.92,52.73,264.97,52.51,264.97,52.29 M261.57,49.83c0-0.09,0.05-0.14,0.14-0.14h1.67
			c0.22,0,0.44,0.03,0.65,0.09c0.21,0.06,0.42,0.15,0.61,0.26c0.2,0.11,0.37,0.24,0.54,0.4c0.17,0.16,0.31,0.33,0.43,0.52
			c0.12,0.19,0.22,0.4,0.28,0.62c0.07,0.22,0.1,0.45,0.1,0.7c0,0.35-0.07,0.68-0.2,0.99c-0.13,0.31-0.32,0.58-0.55,0.81
			c-0.24,0.23-0.51,0.42-0.83,0.56c-0.31,0.14-0.65,0.22-1.02,0.23h-1.7c-0.09,0-0.14-0.05-0.14-0.14V49.83z"/>
		<path class="st0" d="M267.95,52.83c0,0.16,0.03,0.32,0.08,0.46s0.13,0.27,0.23,0.38c0.1,0.11,0.22,0.2,0.35,0.26
			c0.14,0.06,0.28,0.09,0.45,0.09c0.16,0,0.31-0.03,0.45-0.09c0.14-0.06,0.25-0.15,0.35-0.26c0.1-0.11,0.17-0.23,0.23-0.38
			c0.05-0.14,0.08-0.3,0.08-0.46v-2.98c0-0.04,0.02-0.08,0.05-0.11c0.03-0.03,0.07-0.05,0.12-0.05h0.69c0.04,0,0.08,0.01,0.12,0.04
			c0.04,0.03,0.06,0.07,0.06,0.11v2.98c0,0.29-0.06,0.57-0.17,0.83c-0.11,0.26-0.26,0.48-0.46,0.68c-0.19,0.2-0.42,0.35-0.68,0.46
			c-0.26,0.11-0.53,0.17-0.83,0.17c-0.2,0-0.38-0.03-0.56-0.08c-0.18-0.05-0.35-0.12-0.51-0.22c-0.16-0.09-0.3-0.2-0.43-0.33
			c-0.13-0.13-0.24-0.27-0.34-0.43c-0.09-0.16-0.16-0.33-0.22-0.51c-0.05-0.18-0.08-0.37-0.08-0.57v-2.98c0-0.03,0.01-0.07,0.04-0.1
			c0.03-0.03,0.06-0.05,0.11-0.05h0.72c0.03,0,0.07,0.02,0.1,0.05c0.04,0.03,0.06,0.07,0.06,0.11V52.83z"/>
		<path class="st0" d="M272.48,49.84c0-0.04,0.01-0.08,0.04-0.11s0.07-0.05,0.12-0.05h0.71c0.1,0,0.15,0.05,0.16,0.15v4.08h2.04
			c0.04,0,0.08,0.01,0.11,0.04c0.03,0.03,0.05,0.07,0.05,0.12v0.64c0,0.1-0.05,0.15-0.15,0.15h-2.91c-0.1,0-0.15-0.05-0.15-0.15
			V49.84z"/>
		<path class="st0" d="M275.67,49.83c0-0.09,0.05-0.14,0.14-0.14h3.67c0.09,0,0.14,0.05,0.14,0.14v0.66c0,0.09-0.05,0.14-0.14,0.14
			h-1.34v4.11c0,0.09-0.05,0.14-0.13,0.14h-0.75c-0.09,0-0.14-0.05-0.14-0.14v-4.11h-1.3c-0.09,0-0.14-0.05-0.14-0.14V49.83z"/>
		<path class="st0" d="M280.36,54.08c-0.02-0.02-0.04-0.04-0.05-0.06c-0.02-0.02-0.02-0.04-0.03-0.07c0-0.02,0-0.04,0-0.06
			c0.01-0.02,0.02-0.05,0.05-0.07l0.47-0.46c0.04-0.04,0.08-0.05,0.12-0.04c0.04,0.01,0.08,0.04,0.12,0.07
			c0.07,0.07,0.15,0.14,0.24,0.21c0.08,0.07,0.18,0.14,0.28,0.19c0.1,0.06,0.21,0.11,0.32,0.14c0.12,0.04,0.24,0.05,0.37,0.05
			c0.14,0,0.26-0.02,0.37-0.06c0.11-0.04,0.2-0.09,0.28-0.15c0.08-0.06,0.13-0.14,0.17-0.22c0.04-0.08,0.06-0.16,0.06-0.25
			c0-0.11-0.04-0.21-0.1-0.28c-0.07-0.08-0.15-0.14-0.25-0.2c-0.1-0.06-0.2-0.1-0.32-0.13c-0.11-0.03-0.22-0.06-0.31-0.09
			c-0.28-0.08-0.53-0.18-0.75-0.28c-0.21-0.1-0.39-0.22-0.54-0.34c-0.15-0.13-0.26-0.27-0.33-0.43c-0.07-0.16-0.11-0.34-0.11-0.53
			c0-0.22,0.05-0.41,0.14-0.59c0.09-0.18,0.22-0.33,0.38-0.46c0.16-0.13,0.36-0.22,0.6-0.29c0.23-0.07,0.49-0.11,0.77-0.11
			c0.15,0,0.3,0.02,0.45,0.06c0.15,0.04,0.29,0.09,0.43,0.16c0.14,0.07,0.27,0.15,0.39,0.24c0.13,0.09,0.24,0.19,0.34,0.29
			c0.08,0.08,0.08,0.17,0,0.27l-0.39,0.41c-0.05,0.04-0.09,0.06-0.13,0.04c-0.04-0.02-0.09-0.04-0.13-0.08
			c-0.05-0.05-0.12-0.1-0.19-0.15c-0.07-0.05-0.15-0.11-0.24-0.16c-0.08-0.05-0.17-0.09-0.27-0.12c-0.1-0.03-0.2-0.05-0.3-0.05
			c-0.09,0-0.18,0.01-0.28,0.02c-0.1,0.01-0.18,0.04-0.26,0.08c-0.08,0.04-0.14,0.1-0.19,0.17c-0.05,0.07-0.08,0.17-0.08,0.29
			c0,0.09,0.03,0.16,0.08,0.23c0.05,0.06,0.12,0.12,0.21,0.17c0.09,0.05,0.2,0.09,0.32,0.14c0.12,0.04,0.26,0.08,0.41,0.12
			c0.23,0.07,0.46,0.15,0.67,0.23c0.21,0.09,0.39,0.19,0.55,0.32c0.16,0.12,0.28,0.27,0.37,0.45c0.09,0.17,0.14,0.38,0.14,0.63
			c0,0.24-0.05,0.46-0.16,0.66c-0.11,0.2-0.25,0.37-0.43,0.5c-0.18,0.14-0.38,0.25-0.62,0.32c-0.23,0.07-0.48,0.11-0.73,0.11
			c-0.18,0-0.36-0.02-0.54-0.06c-0.18-0.04-0.35-0.1-0.51-0.17c-0.16-0.08-0.32-0.17-0.47-0.27
			C280.61,54.33,280.48,54.21,280.36,54.08"/>
		<path class="st0" d="M264.72,59.9c0-0.23-0.04-0.46-0.13-0.66c-0.08-0.2-0.2-0.38-0.35-0.53c-0.14-0.15-0.32-0.27-0.52-0.36
			c-0.2-0.09-0.42-0.13-0.65-0.13c-0.24,0-0.45,0.04-0.65,0.13c-0.2,0.09-0.37,0.21-0.52,0.36c-0.15,0.15-0.26,0.33-0.34,0.53
			c-0.08,0.2-0.12,0.43-0.12,0.66c0,0.23,0.04,0.45,0.12,0.66c0.08,0.2,0.2,0.38,0.34,0.53c0.14,0.15,0.32,0.27,0.52,0.36
			c0.2,0.09,0.42,0.13,0.65,0.13c0.23,0,0.45-0.04,0.65-0.13c0.2-0.09,0.38-0.21,0.52-0.36c0.15-0.15,0.26-0.33,0.35-0.53
			C264.68,60.35,264.72,60.13,264.72,59.9 M265.74,59.9c0,0.25-0.03,0.48-0.1,0.71c-0.06,0.23-0.15,0.44-0.27,0.63
			c-0.11,0.2-0.25,0.38-0.42,0.54c-0.16,0.16-0.35,0.3-0.54,0.42c-0.2,0.12-0.41,0.21-0.64,0.27c-0.23,0.06-0.47,0.09-0.71,0.09
			c-0.25,0-0.48-0.03-0.71-0.09c-0.23-0.06-0.44-0.15-0.63-0.27c-0.2-0.12-0.38-0.26-0.54-0.42c-0.16-0.16-0.3-0.34-0.41-0.54
			c-0.12-0.2-0.2-0.41-0.27-0.64c-0.06-0.23-0.09-0.46-0.09-0.71c0-0.25,0.03-0.48,0.09-0.71c0.06-0.23,0.15-0.44,0.27-0.64
			c0.11-0.2,0.25-0.38,0.41-0.54c0.16-0.16,0.34-0.3,0.54-0.42c0.2-0.11,0.41-0.2,0.63-0.27c0.23-0.06,0.46-0.09,0.71-0.09
			c0.24,0,0.48,0.03,0.71,0.09c0.23,0.06,0.44,0.15,0.64,0.27c0.2,0.11,0.38,0.25,0.54,0.42c0.16,0.16,0.3,0.34,0.42,0.54
			c0.11,0.2,0.2,0.41,0.27,0.64C265.71,59.41,265.74,59.65,265.74,59.9"/>
		<path class="st0" d="M266.82,57.46c0-0.04,0.01-0.08,0.04-0.11s0.06-0.05,0.11-0.05h0.82c0.03,0,0.07,0.01,0.11,0.03
			c0.04,0.02,0.07,0.05,0.09,0.08l2.29,3.3v-3.3c0.02-0.04,0.04-0.07,0.07-0.09c0.03-0.02,0.06-0.02,0.08-0.02h0.71
			c0.04,0,0.07,0.01,0.11,0.04c0.04,0.03,0.06,0.07,0.06,0.11v4.87c0,0.1-0.06,0.15-0.17,0.15h-0.69c-0.06,0-0.1-0.01-0.12-0.03
			c-0.03-0.02-0.05-0.05-0.08-0.08l-2.43-3.49v3.45c0.01,0.1-0.04,0.15-0.15,0.15h-0.7c-0.1,0-0.15-0.05-0.15-0.15V57.46z"/>
		<path class="st0" d="M272.62,57.45c0-0.04,0.01-0.08,0.04-0.11c0.03-0.03,0.07-0.05,0.12-0.05h0.71c0.1,0,0.15,0.05,0.16,0.15
			v4.08h2.04c0.04,0,0.08,0.01,0.11,0.04c0.03,0.03,0.05,0.07,0.05,0.12v0.64c0,0.09-0.05,0.15-0.15,0.15h-2.91
			c-0.1,0-0.15-0.05-0.15-0.15V57.45z"/>
		<path class="st0" d="M277.45,60.31l-1.67-2.85c-0.02-0.05-0.03-0.09-0.01-0.11c0.02-0.03,0.05-0.04,0.1-0.04h0.86
			c0.04,0,0.07,0.01,0.1,0.03c0.03,0.02,0.05,0.05,0.07,0.1l1.05,2.03l1.05-2.03c0.02-0.05,0.05-0.08,0.08-0.1
			c0.02-0.02,0.06-0.03,0.09-0.03h0.87c0.04,0,0.08,0.01,0.1,0.04c0.02,0.03,0.02,0.06,0,0.11l-1.67,2.84v2.04
			c0,0.1-0.04,0.15-0.13,0.15h-0.75c-0.09,0-0.14-0.05-0.14-0.15V60.31z"/>
	</g>
</g>
</svg>
