<?xml version="1.0" standalone="no"?>
<!DOCTYPE svg PUBLIC "-//W3C//DTD SVG 20010904//EN"
 "http://www.w3.org/TR/2001/REC-SVG-20010904/DTD/svg10.dtd">
<svg version="1.0" xmlns="http://www.w3.org/2000/svg"
 width="335.000000pt" height="141.000000pt" viewBox="0 0 335.000000 141.000000"
 preserveAspectRatio="xMidYMid meet">

<g transform="translate(0.000000,141.000000) scale(0.100000,-0.100000)"
fill="#000000" stroke="none">
<path d="M2812 1385 c-33 -24 -162 -246 -162 -280 0 -34 129 -256 162 -280 18
-12 53 -15 171 -15 82 0 157 5 168 10 24 13 169 257 169 285 0 28 -145 272
-169 285 -11 5 -86 10 -168 10 -118 0 -153 -3 -171 -15z m330 -17 c21 -16 158
-244 158 -262 0 -19 -137 -248 -157 -263 -12 -9 -62 -13 -164 -13 l-148 0 -24
32 c-45 62 -137 224 -137 243 0 25 135 251 158 264 26 15 294 14 314 -1z"/>
<path d="M2802 1155 c-15 -31 -16 -56 -2 -35 8 13 13 13 31 2 20 -13 21 -12
14 5 -4 10 -10 26 -12 36 -7 24 -18 21 -31 -8z m23 -5 c3 -5 1 -10 -4 -10 -6
0 -11 5 -11 10 0 6 2 10 4 10 3 0 8 -4 11 -10z"/>
<path d="M2860 1151 c0 -36 13 -46 40 -31 31 17 23 54 -12 58 -25 3 -28 0 -28
-27z m47 3 c6 -16 -15 -37 -29 -28 -4 3 -8 14 -8 25 0 23 28 26 37 3z"/>
<path d="M2941 1154 c-1 -21 5 -34 15 -38 24 -9 34 2 33 37 l-1 32 -7 -30 c-3
-16 -11 -30 -16 -30 -5 0 -13 14 -16 30 l-7 30 -1 -31z"/>
<path d="M3013 1150 c2 -26 7 -36 22 -38 18 -4 19 -3 3 10 -9 7 -19 24 -21 38
-3 16 -5 13 -4 -10z"/>
<path d="M3067 1172 c6 -4 13 -21 16 -37 l4 -30 2 32 c0 17 7 34 14 36 6 3 -1
6 -18 6 -16 0 -25 -3 -18 -7z"/>
<path d="M3125 1171 c-3 -6 4 -15 15 -21 24 -13 18 -32 -8 -24 -15 5 -15 5 1
-6 9 -6 22 -8 27 -5 16 10 12 32 -7 40 -17 7 -16 8 2 15 19 8 19 9 -2 9 -12 1
-24 -3 -28 -8z"/>
<path d="M2860 1065 c-18 -22 -8 -50 19 -50 32 0 49 28 32 49 -17 20 -35 20
-51 1z m40 -10 c13 -16 6 -35 -15 -35 -18 0 -28 17 -21 35 7 19 20 19 36 0z"/>
<path d="M2942 1045 c0 -27 2 -32 5 -16 l5 25 19 -25 19 -24 -1 35 c-1 20 -3
27 -6 16 -5 -18 -6 -18 -24 5 l-19 24 2 -40z"/>
<path d="M3022 1048 c-2 -34 1 -38 21 -37 15 1 17 3 5 6 -10 2 -18 17 -21 36
-4 31 -4 31 -5 -5z"/>
<path d="M3073 1048 l11 -37 13 31 c16 36 16 50 2 25 -10 -18 -11 -18 -24 0
-12 15 -12 13 -2 -19z"/>
<path d="M111 1088 c-52 -27 -81 -74 -81 -130 0 -53 276 -607 317 -636 61 -43
147 -36 195 15 20 22 228 419 228 436 0 2 -22 2 -49 -1 -92 -9 -154 26 -307
169 -107 100 -184 156 -229 164 -21 4 -44 -1 -74 -17z"/>
<path d="M290 1106 c0 -2 17 -15 38 -28 20 -14 82 -66 137 -117 117 -108 186
-146 246 -138 139 19 177 194 57 267 -30 18 -51 20 -255 20 -123 0 -223 -2
-223 -4z"/>
<path d="M985 1096 c-37 -16 -70 -52 -84 -89 -17 -45 -15 -579 3 -620 18 -43
68 -85 113 -93 50 -9 121 21 150 65 23 33 23 38 23 341 0 303 0 308 -23 341
-40 61 -117 84 -182 55z"/>
<path d="M1330 1092 c-50 -25 -80 -74 -80 -134 0 -42 17 -83 136 -321 75 -149
148 -284 162 -299 49 -53 122 -60 189 -18 27 16 53 59 142 239 l110 219 -59
-5 c-85 -8 -140 22 -286 157 -118 109 -220 180 -259 180 -11 0 -36 -8 -55 -18z"/>
<path d="M1545 1076 c28 -19 93 -74 145 -122 109 -100 181 -139 241 -131 108
14 161 139 97 229 -38 55 -56 58 -305 58 l-228 0 50 -34z"/>
<path d="M2280 1099 c-13 -5 -33 -18 -43 -27 -26 -23 -294 -560 -302 -604 -15
-79 56 -168 133 -168 60 0 117 39 277 188 136 127 219 164 308 139 26 -7 23 2
-85 215 -75 147 -122 229 -140 242 -31 22 -112 31 -148 15z"/>
<path d="M2505 551 c-27 -16 -93 -68 -145 -117 -52 -48 -115 -100 -140 -116
l-45 -29 237 3 c221 3 238 4 264 24 46 34 66 68 66 115 2 128 -118 189 -237
120z"/>
<path d="M210 80 c0 -60 16 -84 22 -33 2 22 8 28 28 28 20 0 26 -6 28 -27 6
-52 22 -28 22 32 0 58 -15 84 -22 38 -2 -17 -10 -23 -28 -23 -18 0 -26 6 -28
23 -7 46 -22 20 -22 -38z"/>
<path d="M366 124 c-25 -25 -20 -71 10 -90 55 -37 117 25 80 80 -19 30 -65 35
-90 10z m74 -19 c29 -35 -26 -85 -58 -53 -13 13 -16 50 -5 61 12 12 50 7 63
-8z"/>
<path d="M490 130 c0 -5 7 -10 15 -10 11 0 15 -12 15 -44 0 -25 5 -48 10 -51
6 -4 10 13 10 44 0 44 3 51 20 51 11 0 20 5 20 10 0 6 -20 10 -45 10 -25 0
-45 -4 -45 -10z"/>
<path d="M610 80 l0 -60 45 0 c25 0 45 5 45 10 0 6 -16 10 -36 10 -28 0 -35 4
-32 17 2 9 14 20 28 24 l25 6 -24 4 c-37 6 -39 29 -2 29 17 0 31 5 31 10 0 6
-18 10 -40 10 l-40 0 0 -60z"/>
<path d="M730 80 l0 -60 35 0 c19 0 35 5 35 10 0 6 -11 10 -25 10 -23 0 -25 3
-25 50 0 28 -4 50 -10 50 -6 0 -10 -27 -10 -60z"/>
<path d="M847 133 c-17 -17 -5 -45 23 -55 40 -13 32 -34 -11 -31 -32 3 -33 2
-15 -12 24 -18 48 -19 64 -3 21 21 13 45 -18 58 -16 7 -30 16 -30 20 0 15 13
19 31 9 15 -7 19 -6 19 6 0 15 -50 22 -63 8z"/>
<path d="M1010 136 c0 -14 44 -116 50 -116 7 0 50 95 50 111 0 24 -20 4 -33
-33 l-15 -43 -18 43 c-9 23 -21 42 -26 42 -4 0 -8 -2 -8 -4z"/>
<path d="M1150 80 c0 -33 4 -60 10 -60 6 0 10 27 10 60 0 33 -4 60 -10 60 -6
0 -10 -27 -10 -60z"/>
<path d="M1202 132 c2 -4 12 -31 23 -60 10 -29 23 -51 28 -49 5 1 20 28 32 60
19 45 21 57 9 57 -8 0 -14 -6 -14 -12 -1 -7 -7 -26 -14 -43 l-13 -30 -18 43
c-9 23 -22 42 -27 42 -5 0 -8 -4 -6 -8z"/>
<path d="M1341 84 c-20 -54 -20 -88 0 -51 13 22 48 22 65 0 7 -10 15 -16 17
-13 8 8 -37 113 -49 117 -6 2 -21 -22 -33 -53z m49 -11 c0 -7 -7 -13 -15 -13
-16 0 -19 9 -9 35 5 13 8 14 15 3 5 -7 9 -19 9 -25z"/>
<path d="M1537 133 c-2 -4 -7 -25 -11 -46 -7 -40 5 -67 30 -67 14 0 83 42 84
51 0 3 -16 5 -35 6 -31 1 -35 -2 -30 -18 5 -13 2 -19 -10 -19 -20 0 -32 29
-16 39 7 4 9 15 5 25 -6 15 -3 17 16 11 16 -5 21 -4 18 6 -5 16 -44 25 -51 12z"/>
<path d="M1730 81 c0 -34 4 -61 10 -61 6 0 10 9 10 19 0 42 37 32 53 -13 2 -6
7 -8 11 -4 4 3 3 15 -3 26 -7 13 -7 22 0 29 6 6 9 21 7 34 -2 20 -10 24 -45
27 l-43 3 0 -60z m68 22 c-2 -10 -12 -18 -23 -18 -11 0 -21 8 -23 18 -3 13 3
17 23 17 20 0 26 -4 23 -17z"/>
<path d="M1860 80 l0 -60 40 0 c22 0 40 5 40 10 0 6 -14 10 -31 10 -23 0 -30
4 -27 17 2 9 14 20 28 24 l25 7 -27 1 c-40 1 -38 31 2 31 17 0 30 5 30 10 0 6
-18 10 -40 10 l-40 0 0 -60z"/>
<path d="M1987 134 c-17 -18 -6 -46 23 -56 40 -13 32 -34 -11 -31 -32 3 -33 2
-15 -12 24 -18 48 -19 64 -3 21 21 13 45 -18 58 -17 7 -29 18 -27 24 4 11 9
11 34 4 6 -2 13 2 15 7 4 12 -54 19 -65 9z"/>
<path d="M2107 122 c-10 -10 -17 -28 -17 -40 0 -28 34 -62 60 -62 27 0 60 35
60 63 0 50 -70 76 -103 39z m73 -17 c26 -32 -13 -81 -47 -59 -23 14 -28 41
-13 59 16 19 44 19 60 0z"/>
<path d="M2250 80 c0 -33 4 -60 10 -60 6 0 10 11 10 25 0 14 4 25 10 25 5 0
17 -11 26 -25 20 -30 39 -34 23 -4 -8 16 -8 27 1 45 18 32 -2 54 -46 54 l-34
0 0 -60z m63 33 c9 -9 -12 -33 -29 -33 -8 0 -14 9 -14 20 0 19 28 28 43 13z"/>
<path d="M2360 130 c0 -5 9 -10 20 -10 17 0 20 -7 20 -50 0 -27 5 -50 10 -50
6 0 10 23 10 50 0 38 4 50 15 50 8 0 15 5 15 10 0 6 -20 10 -45 10 -25 0 -45
-4 -45 -10z"/>
<path d="M2484 125 c-7 -18 10 -42 37 -50 10 -4 19 -13 19 -21 0 -12 -7 -14
-32 -9 -31 7 -32 6 -16 -10 32 -34 96 6 67 41 -6 8 -17 14 -24 14 -7 0 -18 7
-25 15 -13 16 -6 20 34 15 11 -1 15 3 12 9 -11 17 -66 13 -72 -4z"/>
</g>
</svg>
