<?xml version="1.0" standalone="no"?>
<!DOCTYPE svg PUBLIC "-//W3C//DTD SVG 20010904//EN"
 "http://www.w3.org/TR/2001/REC-SVG-20010904/DTD/svg10.dtd">
<svg version="1.0" xmlns="http://www.w3.org/2000/svg"
 width="320.000000pt" height="168.000000pt" viewBox="0 0 320.000000 168.000000"
 preserveAspectRatio="xMidYMid meet">

<g transform="translate(0.000000,168.000000) scale(0.100000,-0.100000)"
fill="#000000" stroke="none">
<path d="M417 530 c-37 -29 -37 -80 -1 -109 35 -27 59 -26 89 4 63 63 -18 160
-88 105z m71 -22 c7 -7 12 -21 12 -33 0 -44 -60 -63 -80 -26 -14 27 -13 37 6
55 18 19 45 21 62 4z"/>
<path d="M970 532 c-27 -22 -19 -44 26 -65 43 -21 36 -41 -12 -32 -38 7 -46
-8 -15 -25 29 -15 49 -12 71 10 26 26 14 53 -30 68 -40 14 -40 37 0 29 35 -7
49 8 21 22 -27 15 -35 14 -61 -7z"/>
<path d="M1777 537 c-8 -7 -18 -35 -22 -64 -6 -46 -5 -53 15 -63 24 -13 70 0
70 20 0 5 9 10 19 10 11 0 23 5 26 10 9 15 -4 32 -18 23 -7 -4 -22 -6 -34 -5
-11 2 -24 -2 -28 -7 -3 -6 -1 -11 4 -11 6 0 11 -4 11 -10 0 -14 -37 -13 -46 2
-4 6 1 17 11 25 15 10 16 16 7 25 -16 16 -15 28 3 28 8 0 15 -4 15 -10 0 -5 5
-10 10 -10 17 0 11 29 -9 39 -13 7 -23 7 -34 -2z"/>
<path d="M2296 537 c-26 -19 -16 -50 21 -67 45 -21 44 -44 -2 -37 -39 6 -46
-6 -14 -23 28 -16 66 -5 74 21 8 24 -6 43 -45 59 -37 15 -28 34 11 26 33 -6
39 8 10 24 -26 13 -33 13 -55 -3z"/>
<path d="M2460 543 c-55 -20 -68 -87 -24 -122 15 -12 34 -21 44 -21 33 0 70
39 70 74 0 46 -49 84 -90 69z m48 -35 c16 -16 15 -53 -2 -68 -21 -17 -58 -8
-67 16 -15 43 38 83 69 52z"/>
<path d="M2888 543 c-19 -5 -33 -37 -23 -53 4 -6 22 -17 41 -25 44 -18 36 -39
-12 -30 -40 7 -46 -10 -9 -27 36 -16 75 3 75 37 0 20 -8 29 -35 41 -43 18 -47
39 -5 31 35 -7 49 8 21 22 -20 11 -25 12 -53 4z"/>
<path d="M230 469 c0 -52 3 -70 13 -67 6 3 13 17 15 31 3 22 8 27 33 27 26 0
29 -3 29 -30 0 -20 5 -30 15 -30 12 0 15 14 15 70 0 56 -3 70 -15 70 -9 0 -15
-9 -15 -25 0 -21 -5 -25 -30 -25 -25 0 -30 4 -30 25 0 16 -6 25 -15 25 -12 0
-15 -15 -15 -71z"/>
<path d="M550 530 c0 -5 9 -10 20 -10 18 0 20 -7 20 -60 0 -47 3 -60 15 -60
12 0 15 13 15 60 0 53 2 60 20 60 11 0 20 5 20 10 0 6 -25 10 -55 10 -30 0
-55 -4 -55 -10z"/>
<path d="M692 473 l3 -68 48 -3 c37 -2 47 0 47 12 0 12 -10 16 -35 16 -42 0
-49 27 -8 32 39 4 42 28 4 28 -21 0 -31 5 -31 15 0 10 11 15 35 15 19 0 35 5
35 10 0 6 -23 10 -50 10 l-51 0 3 -67z"/>
<path d="M830 470 l0 -70 45 0 c33 0 45 4 45 15 0 10 -10 15 -30 15 -30 0 -30
1 -30 55 0 42 -3 55 -15 55 -12 0 -15 -14 -15 -70z"/>
<path d="M1171 489 c26 -67 38 -89 48 -89 5 0 17 24 29 53 11 28 23 60 27 70
5 12 2 17 -8 17 -9 0 -20 -16 -27 -37 -18 -57 -26 -59 -42 -11 -8 23 -22 44
-31 46 -14 3 -13 -3 4 -49z"/>
<path d="M1312 473 c2 -42 8 -68 16 -71 9 -3 12 15 12 67 0 57 -3 71 -15 71
-13 0 -15 -12 -13 -67z"/>
<path d="M1384 517 c11 -44 45 -117 55 -117 7 0 61 118 61 135 0 3 -7 5 -15 5
-8 0 -15 -4 -15 -9 0 -5 -7 -26 -16 -47 l-16 -39 -18 45 c-19 49 -47 70 -36
27z"/>
<path d="M1543 488 c-12 -29 -24 -61 -28 -70 -5 -13 -2 -18 8 -18 8 0 17 7 21
15 8 21 56 19 72 -2 7 -10 16 -15 19 -11 11 11 -41 133 -57 136 -10 2 -22 -16
-35 -50z m47 -19 c0 -10 -7 -19 -15 -19 -16 0 -19 9 -9 34 8 20 24 11 24 -15z"/>
<path d="M1992 473 c2 -42 8 -68 16 -71 7 -2 12 6 12 22 0 34 33 35 48 1 12
-26 32 -34 32 -12 0 6 -4 18 -9 26 -6 9 -5 21 1 31 6 9 8 29 4 43 -6 25 -11
27 -57 27 l-50 0 3 -67z m81 33 c7 -19 -1 -26 -30 -26 -16 0 -23 6 -23 20 0
14 7 20 24 20 13 0 26 -6 29 -14z"/>
<path d="M2140 470 l0 -70 50 0 c38 0 50 4 50 15 0 10 -11 15 -35 15 -24 0
-35 5 -35 15 0 9 9 15 25 15 16 0 25 6 25 15 0 9 -9 15 -25 15 -16 0 -25 6
-25 15 0 10 11 15 35 15 19 0 35 5 35 10 0 6 -22 10 -50 10 l-50 0 0 -70z"/>
<path d="M2590 471 c0 -56 3 -71 15 -71 9 0 15 9 15 25 0 16 6 25 15 25 9 0
21 -11 27 -25 6 -14 17 -25 25 -25 16 0 16 5 2 32 -8 15 -8 27 2 45 20 37 2
57 -55 61 l-46 3 0 -70z m78 27 c3 -13 -3 -18 -22 -18 -20 0 -26 5 -26 21 0
15 5 20 22 17 13 -2 24 -11 26 -20z"/>
<path d="M2720 530 c0 -5 9 -10 20 -10 16 0 19 -8 22 -57 4 -81 28 -85 28 -4
0 54 2 61 20 61 11 0 20 5 20 10 0 6 -25 10 -55 10 -30 0 -55 -4 -55 -10z"/>
</g>
</svg>
